<?xml version="1.0" encoding="utf-8"?>
<!-- Generator: Adobe Illustrator 15.0.0, SVG Export Plug-In . SVG Version: 6.00 Build 0)  -->
<!DOCTYPE svg PUBLIC "-//W3C//DTD SVG 1.1//EN" "http://www.w3.org/Graphics/SVG/1.1/DTD/svg11.dtd">
<svg version="1.1" id="Layer_1" xmlns="http://www.w3.org/2000/svg" xmlns:xlink="http://www.w3.org/1999/xlink" x="0px" y="0px"
	 width="841.89px" height="595.28px" viewBox="0 0 841.89 595.28" enable-background="new 0 0 841.89 595.28" xml:space="preserve">
<g>
	<g id="XMLID_1_">
		<g>
			<polygon fill="#FFFFFF" points="420.944,112.835 420.944,79.555 551.465,149.105 550.734,148.905 			"/>
			<polygon fill="#FFFFFF" points="420.944,79.555 420.944,112.835 290.385,149.125 			"/>
			<polygon fill="#1D1D1B" points="551.484,149.115 550.734,148.905 551.465,149.105 			"/>
			<polygon fill="#FFFFFF" points="551.484,149.115 473.864,159.675 420.944,143.555 420.944,112.835 550.734,148.905 			"/>
			<polygon fill="#FFFFFF" points="838.955,270.905 684.064,231.295 420.944,206.295 420.944,166.875 420.944,143.555 
				473.864,159.675 			"/>
			<path fill="#FFFFFF" d="M736.425,453.345c3.01,3.84,3.649,13.101-1.51,14.49h-32.44c-3.49,0.79-5.87-0.22-7.82-3.46
				c-8.96-14.64-17.93-52.76-26.939-69.56c-0.87-1.591-2.17-1.5-3.04,0.22c-2.97,5.41-5.94,10.89-8.93,16.46
				c-0.66,1.189-0.87,2.35-0.87,3.76v42.98c0,5.359-2.17,8.859-6.53,9.6h-24.88c-4.16,0.59-6.55-2.38-6.55-8.08v-196.56
				c0-5.99,2.39-8.67,6.55-8.07c6.76,0.87,16.47,1.31,24.88,2.28c4.36,0.74,6.53,3.95,6.53,9.6v55.53c0,2.83,1.54,3.47,2.62,1.28
				c11.39-19.591,22.77-41.73,34.119-58.3c1.96-3.01,4.351-4.05,7.811-3.27c10.58,1.34,21.07,1.95,32.03,3.25
				c5.38,1.43,7.119,5.53,4.1,9.66c-13.12,19.69-29.11,47.88-43.71,71.85c-0.66,1.29-0.87,2.35,0,3.66
				C707.234,381.275,723.225,427.725,736.425,453.345z"/>
			<path fill="#FFFFFF" d="M608.404,450.585c3.07,7.55-0.439,16.44-7.22,17.25c-8.17,0.05-16.58,0-23.939,0
				c-2.19,0.2-4.16-1.2-5.04-3.97c-7.601-20.45-15.2-43.4-22.801-64.61c-0.439-0.939-1.1-1.57-1.75-1.55
				c-2.939,0.06-5.859,0.12-8.79,0.17c-3.949,0.08-6.8,4.3-6.8,10.09v49.64c0,5.79-2.84,10.101-6.8,10.23h-24.6
				c-3.95,0.04-6.801-4.17-6.801-10v-204.85c0-5.83,2.851-10.05,6.801-10.01c14.859,1.85,31.08,2.94,48.08,4.85
				c41.02,5.18,54.76,25.1,54.77,74.75c0,28.37-5.03,48.18-16.63,60.31c-0.87,0.95-1.09,2.51-0.66,4.061
				C593.965,407.135,600.675,431.475,608.404,450.585z M565.845,321.425c0-19.57-5.25-21.7-15.79-22.04
				c-3.72-0.12-7.45-0.229-11.19-0.319c-3.949-0.101-6.8,4.02-6.8,9.819v33.58c0,5.79,2.851,9.98,6.8,10
				c3.74,0.021,7.471,0.05,11.19,0.08C560.595,352.615,565.845,340.995,565.845,321.425z"/>
			<polygon fill="#FFFFFF" points="551.505,149.125 551.484,149.115 551.495,149.115 			"/>
			<path fill="#FFFFFF" d="M420.955,233.755c64.979,6.45,60.09,59.51,60.1,80.061v79.819c-0.01,19.271-7.99,76.82-60.1,76.82
				c-52.121,0-60.11-57.55-60.13-76.82v-79.819C360.845,293.265,355.975,240.205,420.955,233.755z M441.955,378.635v-49.81
				c0-23.971-4.79-48.71-21-49.44c-16.24,0.73-21.01,25.47-21.01,49.44v49.81c0,23.97,4.77,40.19,21.01,40.91
				C437.165,418.825,441.955,402.604,441.955,378.635z"/>
			<polygon fill="#FFFFFF" points="420.944,166.875 420.944,206.295 157.825,231.295 2.935,270.905 368.015,159.675 			"/>
			<polygon fill="#FFFFFF" points="420.944,143.555 420.944,166.875 368.015,159.675 			"/>
			<polygon fill="#FFFFFF" points="420.944,112.835 420.944,143.555 368.015,159.675 290.385,149.125 			"/>
			<path fill="#FFFFFF" d="M346.635,242.905c4.58-0.67,6.77,2.62,5.67,9.01c-10.63,64.92-18.43,151.04-29.03,209.84
				c-0.88,4.68-3.27,6.8-7.18,6.08h-40.42c-3.89-0.89-6.27-3.72-7.15-8.17c-10.53-55.98-23.74-146.271-31.54-197.87
				c-1.08-4.52,1.08-7.82,5.61-9.03c7.82-1.05,18.62-1.72,25.73-2.49c3.89-0.92,6.27,0.84,7.13,5
				c6.36,31.42,12.73,82.47,19.1,116.96c0.44,2.42,2.18,2.489,2.61,0.08c6.38-34.23,12.76-81.931,19.15-118.811
				c0.86-4.89,3.25-7.85,7.18-8.54C331.705,243.895,337.625,243.965,346.635,242.905z"/>
			<path fill="#FFFFFF" d="M213.055,459.545v6.48c0,1.09-0.7,1.72-1.9,1.72h-40.39c-1.27,0-1.89-0.61-1.89-1.68v-6.37
				c0-1.11,0.62-1.67,1.89-1.681l12.68-0.05c0.63,0,0.76-0.399,0.26-0.68l-13.64-8.72c-0.81-0.5-1.19-1.11-1.19-2v-8.271
				c0-1.4,1-1.86,2.33-1.09l17.55,11.149c0.31,0.171,0.56,0.221,0.88,0l21.14-12.56c1.27-0.81,2.28-0.31,2.28,1.06v8.521
				c0,0.92-0.38,1.54-1.27,2.06l-12,7.12c-0.38,0.23-0.38,0.57,0,0.79l3.55,2.311c0.25,0.16,0.5,0.22,0.82,0.22l7-0.021
				C212.354,457.854,213.055,458.405,213.055,459.545z"/>
			<path fill="#FFFFFF" d="M213.035,383.615v6.359c0,1.03-0.8,1.801-1.94,1.83l-40.27,1.21c-1.14,0.04-1.95-0.67-1.95-1.67v-12.25
				c0-9.95,4.8-14.17,15.14-14.6c5.87-0.24,9.98,0.89,12.37,3.79c0.19,0.21,0.5,0.26,0.82,0.13l12.43-6.5
				c1.65-0.87,3.4-0.04,3.4,1.729v6.48c0,0.57-0.3,1.1-0.87,1.34l-12.68,6.37c-0.19,0.12-0.32,0.29-0.32,0.46v2.271
				c0,1.02,0.81,1.729,1.95,1.68l9.98-0.34C212.235,381.875,213.035,382.585,213.035,383.615z M188.305,380.935v-2.859
				c0-2.71-0.38-4.05-4.29-3.9c-3.91,0.15-4.29,1.5-4.29,4.2v2.86c0,1.02,0.82,1.71,1.96,1.68l4.68-0.16
				C187.485,382.715,188.305,381.955,188.305,380.935z"/>
			<path fill="#FFFFFF" d="M213.985,270.185c0,11.96-8.71,15.15-13.63,15.79c-1.12,0.14-1.82-0.31-2.07-1.31l-1.57-6.28
				c-0.27-1.11,0.3-1.78,1.63-1.99c3.03-0.46,4.79-2.7,4.79-5.36c0-2.77-1.81-4.67-3.54-4.19c-5.35,1.51-4.15,18.41-18.67,19.47
				c-1.89,0.2-13.06,0.01-13.06-12.51c0-11.51,8.45-14.91,13-15.62c1.14-0.16,1.82,0.29,2.09,1.28l1.57,6.29
				c0.25,1.1-0.32,1.71-1.57,1.98c-2.6,0.6-4.24,2.58-4.24,5.22c0,2.19,1.45,3.43,2.91,3.09c4.91-1.17,4.8-18.95,19.3-20.18
				C202.825,255.715,213.985,256.695,213.985,270.185z"/>
			<path fill="#FFFFFF" d="M213.985,342.295c0,11.95-8.71,14.89-13.63,15.39c-1.12,0.11-1.82-0.359-2.07-1.369l-1.57-6.32
				c-0.27-1.12,0.3-1.771,1.63-1.95c3.03-0.37,4.79-2.55,4.79-5.22c0-2.771-1.81-4.721-3.54-4.28c-5.35,1.34-4.15,18.28-18.67,18.92
				c-1.89,0.15-13.06-0.36-13.06-12.88c0-11.52,8.45-14.67,13-15.25c1.14-0.12,1.82,0.35,2.09,1.34l1.57,6.33
				c0.25,1.12-0.32,1.71-1.57,1.94c-2.6,0.529-4.24,2.46-4.24,5.1c0,2.19,1.45,3.47,2.91,3.17c4.91-1.02,4.8-18.81,19.3-19.62
				C202.825,327.485,213.985,328.805,213.985,342.295z"/>
			<path fill="#FFFFFF" d="M214.175,305.935c0,13.49-11.16,14.931-15.34,15.181l-28.07,1.64c-1.27,0.08-1.89-0.5-1.89-1.56v-6.261
				c0-1.119,0.62-1.72,1.89-1.79l24.73-1.55c4.86-0.31,7.82-0.77,7.82-4.97s-2.96-4.28-7.82-3.96l-24.73,1.63
				c-1.27,0.08-1.89-0.49-1.89-1.55v-6.26c0-1.11,0.62-1.72,1.89-1.81l28.07-1.96C203.015,292.425,214.175,292.445,214.175,305.935z
				"/>
			<path fill="#FFFFFF" d="M214.175,414.845c0,13.48-11.16,14.45-15.34,14.521l-28.07,0.43c-1.27,0.021-1.89-0.58-1.89-1.64v-6.261
				c0-1.13,0.62-1.689,1.89-1.72l24.73-0.47c4.86-0.101,7.82-0.44,7.82-4.63c0-4.2-2.96-4.41-7.82-4.311l-24.73,0.57
				c-1.27,0.03-1.89-0.57-1.89-1.63v-6.271c0-1.109,0.62-1.689,1.89-1.72l28.07-0.75
				C203.015,400.854,214.175,401.354,214.175,414.845z"/>
			<path fill="#FFFFFF" d="M151.875,403.325v23.319c0,1.051-0.7,1.681-1.9,1.69l-40.38,0.66c-1.27,0.02-1.9-0.57-1.9-1.61v-22.899
				c0-1.091,0.63-1.65,1.9-1.69l7.08-0.19c1.19-0.029,1.88,0.5,1.88,1.601v13.25c0,1.04,0.63,1.63,1.9,1.61l2.01-0.04
				c1.21-0.03,1.9-0.65,1.9-1.69v-8.51c0-1.101,0.62-1.67,1.89-1.7l7.08-0.17c1.18-0.03,1.88,0.5,1.88,1.61v8.539
				c0,1.051,0.63,1.65,1.9,1.62l2.01-0.04c1.2-0.02,1.9-0.649,1.9-1.699v-13.381c0-1.1,0.63-1.67,1.88-1.71l7.07-0.18
				C151.245,401.675,151.875,402.215,151.875,403.325z"/>
			<path fill="#FFFFFF" d="M151.875,383.035v6.22c0,1.061-0.7,1.69-1.9,1.72l-40.38,1.261c-1.27,0.05-1.9-0.53-1.9-1.57v-8.021
				c0-0.92,0.46-1.54,1.46-1.96l21.01-8.229c0.57-0.25,0.44-0.68-0.19-0.66l-20.38,0.8c-1.27,0.05-1.9-0.52-1.9-1.56v-6.11
				c0-1.09,0.63-1.66,1.9-1.71l40.38-1.75c1.2-0.06,1.9,0.48,1.9,1.59v8.15c0,0.95-0.44,1.58-1.46,2.01l-21.01,8.28
				c-0.56,0.24-0.43,0.68,0.19,0.66l20.38-0.721C151.175,381.395,151.875,381.935,151.875,383.035z"/>
			<path fill="#FFFFFF" d="M151.875,341.604v6.101c0,1.05-0.7,1.7-1.9,1.76l-40.38,1.94c-1.27,0.06-1.9-0.521-1.9-1.551v-6
				c0-1.09,0.63-1.67,1.9-1.729l40.38-2.1C151.175,339.965,151.875,340.485,151.875,341.604z"/>
			<path fill="#FFFFFF" d="M151.875,281.205v6.22c0,1-0.82,1.79-1.96,1.87l-40.26,2.91c-1.14,0.08-1.96-0.57-1.96-1.55v-11.95
				c0-9.7,4.8-14.03,15.15-14.89c5.86-0.49,9.98,0.44,12.37,3.16c0.19,0.21,0.51,0.23,0.82,0.09l12.42-5.77
				c1.65-0.92,3.42-0.18,3.42,1.54v6.33c0,0.56-0.32,1.08-0.89,1.35l-12.68,5.65c-0.18,0.12-0.32,0.3-0.32,0.47v2.2
				c0,0.99,0.84,1.65,1.96,1.56l9.97-0.76C151.055,279.555,151.875,280.205,151.875,281.205z M127.135,279.675v-2.8
				c0-2.64-0.38-3.94-4.29-3.62c-3.91,0.31-4.29,1.66-4.29,4.28v2.8c0,0.98,0.82,1.63,1.95,1.54l4.69-0.35
				C126.314,281.435,127.135,280.655,127.135,279.675z"/>
			<path fill="#FFFFFF" d="M152.825,453.805c0,11.67-8.71,14.17-13.64,14.45c-1.12,0.05-1.82-0.45-2.07-1.439l-1.58-6.23
				c-0.26-1.1,0.31-1.71,1.64-1.83c3.03-0.229,4.8-2.28,4.8-4.88c0-2.71-1.83-4.69-3.55-4.34c-5.35,1.09-4.16,17.67-18.67,17.68
				c-1.89,0.05-13.06-0.92-13.06-13.14c0-11.221,8.46-13.94,13-14.32c1.13-0.07,1.82,0.42,2.08,1.41l1.58,6.24
				c0.25,1.09-0.32,1.64-1.58,1.819c-2.59,0.4-4.23,2.221-4.23,4.79c0,2.141,1.45,3.45,2.91,3.221
				c4.93-0.801,4.8-18.141,19.31-18.32C141.655,438.885,152.825,440.645,152.825,453.805z"/>
			<path fill="#FFFFFF" d="M153.015,314.475c0,13.16-11.18,14.57-15.33,14.811l-15.78,0.88c-4.17,0.24-15.35,0.11-15.35-12.811
				c0-12.909,11.18-14.439,15.35-14.72l15.78-1.069C141.834,301.285,153.015,301.315,153.015,314.475z M134.345,319.985
				c4.85-0.29,7.82-0.74,7.82-4.841c0-4.09-2.97-4.17-7.82-3.869l-9.09,0.579c-4.88,0.32-7.82,0.771-7.82,4.83
				c0,4.051,2.94,4.15,7.82,3.86L134.345,319.985z"/>
		</g>
		<g>
			<polyline fill="none" stroke="#FFFFFF" stroke-linecap="round" stroke-linejoin="round" stroke-miterlimit="10" points="
				420.944,206.295 684.064,231.295 838.955,270.905 473.864,159.675 			"/>
		</g>
	</g>
</g>
<rect x="153.091" y="-177.463" fill="none" width="595.28" height="841.888"/>
</svg>
